{
	"asset":{
		"generator":"Khronos glTF Blender I/O v4.3.47",
		"version":"2.0"
	},
	"scene":0,
	"scenes":[
		{
			"name":"Scene",
			"nodes":[
				0,
				1,
				2,
				3
			]
		}
	],
	"nodes":[
		{
			"mesh":0,
			"name":"Cube"
		},
		{
			"mesh":1,
			"name":"Cylinder",
			"translation":[
				0,
				0.01901545375585556,
				0
			]
		},
		{
			"mesh":2,
			"name":"Cylinder.001",
			"translation":[
				0,
				-0.010104084387421608,
				0
			]
		},
		{
			"mesh":3,
			"name":"Cylinder.002",
			"scale":[
				0.018784623593091965,
				0.018784623593091965,
				0.018784623593091965
			],
			"translation":[
				0,
				0.02780233696103096,
				0
			]
		}
	],
	"meshes":[
		{
			"name":"Cube.001",
			"primitives":[
				{
					"attributes":{
						"POSITION":0,
						"NORMAL":1,
						"TEXCOORD_0":2
					},
					"indices":3
				}
			]
		},
		{
			"name":"Cylinder",
			"primitives":[
				{
					"attributes":{
						"POSITION":4,
						"NORMAL":5,
						"TEXCOORD_0":6
					},
					"indices":7
				}
			]
		},
		{
			"name":"Cylinder.001",
			"primitives":[
				{
					"attributes":{
						"POSITION":8,
						"NORMAL":9,
						"TEXCOORD_0":10
					},
					"indices":11
				}
			]
		},
		{
			"name":"Cylinder.002",
			"primitives":[
				{
					"attributes":{
						"POSITION":12,
						"NORMAL":13,
						"TEXCOORD_0":14
					},
					"indices":15
				}
			]
		}
	],
	"accessors":[
		{
			"bufferView":0,
			"componentType":5126,
			"count":72,
			"max":[
				0.17999997735023499,
				0.015370579436421394,
				0.17999997735023499
			],
			"min":[
				-0.17999997735023499,
				-0.04500000923871994,
				-0.17999997735023499
			],
			"type":"VEC3"
		},
		{
			"bufferView":1,
			"componentType":5126,
			"count":72,
			"type":"VEC3"
		},
		{
			"bufferView":2,
			"componentType":5126,
			"count":72,
			"type":"VEC2"
		},
		{
			"bufferView":3,
			"componentType":5123,
			"count":132,
			"type":"SCALAR"
		},
		{
			"bufferView":4,
			"componentType":5126,
			"count":417,
			"max":[
				0.08944272994995117,
				0.004919424653053284,
				0.08944272994995117
			],
			"min":[
				-0.08944272994995117,
				-0.004809431731700897,
				-0.08944272994995117
			],
			"type":"VEC3"
		},
		{
			"bufferView":5,
			"componentType":5126,
			"count":417,
			"type":"VEC3"
		},
		{
			"bufferView":6,
			"componentType":5126,
			"count":417,
			"type":"VEC2"
		},
		{
			"bufferView":7,
			"componentType":5123,
			"count":1152,
			"type":"SCALAR"
		},
		{
			"bufferView":8,
			"componentType":5126,
			"count":260,
			"max":[
				0.07964372634887695,
				0.07049068808555603,
				0.07964372634887695
			],
			"min":[
				-0.07964372634887695,
				0.05322721600532532,
				-0.07964372634887695
			],
			"type":"VEC3"
		},
		{
			"bufferView":9,
			"componentType":5126,
			"count":260,
			"type":"VEC3"
		},
		{
			"bufferView":10,
			"componentType":5126,
			"count":260,
			"type":"VEC2"
		},
		{
			"bufferView":11,
			"componentType":5123,
			"count":756,
			"type":"SCALAR"
		},
		{
			"bufferView":12,
			"componentType":5126,
			"count":66,
			"max":[
				1,
				1,
				1
			],
			"min":[
				-1,
				-1,
				-1
			],
			"type":"VEC3"
		},
		{
			"bufferView":13,
			"componentType":5126,
			"count":66,
			"type":"VEC3"
		},
		{
			"bufferView":14,
			"componentType":5126,
			"count":66,
			"type":"VEC2"
		},
		{
			"bufferView":15,
			"componentType":5123,
			"count":180,
			"type":"SCALAR"
		}
	],
	"bufferViews":[
		{
			"buffer":0,
			"byteLength":864,
			"byteOffset":0,
			"target":34962
		},
		{
			"buffer":0,
			"byteLength":864,
			"byteOffset":864,
			"target":34962
		},
		{
			"buffer":0,
			"byteLength":576,
			"byteOffset":1728,
			"target":34962
		},
		{
			"buffer":0,
			"byteLength":264,
			"byteOffset":2304,
			"target":34963
		},
		{
			"buffer":0,
			"byteLength":5004,
			"byteOffset":2568,
			"target":34962
		},
		{
			"buffer":0,
			"byteLength":5004,
			"byteOffset":7572,
			"target":34962
		},
		{
			"buffer":0,
			"byteLength":3336,
			"byteOffset":12576,
			"target":34962
		},
		{
			"buffer":0,
			"byteLength":2304,
			"byteOffset":15912,
			"target":34963
		},
		{
			"buffer":0,
			"byteLength":3120,
			"byteOffset":18216,
			"target":34962
		},
		{
			"buffer":0,
			"byteLength":3120,
			"byteOffset":21336,
			"target":34962
		},
		{
			"buffer":0,
			"byteLength":2080,
			"byteOffset":24456,
			"target":34962
		},
		{
			"buffer":0,
			"byteLength":1512,
			"byteOffset":26536,
			"target":34963
		},
		{
			"buffer":0,
			"byteLength":792,
			"byteOffset":28048,
			"target":34962
		},
		{
			"buffer":0,
			"byteLength":792,
			"byteOffset":28840,
			"target":34962
		},
		{
			"buffer":0,
			"byteLength":528,
			"byteOffset":29632,
			"target":34962
		},
		{
			"buffer":0,
			"byteLength":360,
			"byteOffset":30160,
			"target":34963
		}
	],
	"buffers":[
		{
			"byteLength":30520,
			"uri":"button-74d43322fa64ad0db22a4abfd6352835.bin"
		}
	]
}
