{
	"asset":{
		"generator":"Khronos glTF Blender I/O v4.3.47",
		"version":"2.0"
	},
	"scene":0,
	"scenes":[
		{
			"name":"Scene",
			"nodes":[
				0,
				1,
				2,
				3
			]
		}
	],
	"nodes":[
		{
			"mesh":0,
			"name":"Elevator"
		},
		{
			"mesh":1,
			"name":"Boolean.001",
			"scale":[
				1,
				1,
				1.1557916402816772
			],
			"translation":[
				0,
				0,
				-0.12303653359413147
			]
		},
		{
			"mesh":2,
			"name":"Door"
		},
		{
			"mesh":3,
			"name":"Door.001"
		}
	],
	"materials":[
		{
			"doubleSided":true,
			"name":"Material.001",
			"pbrMetallicRoughness":{
				"baseColorFactor":[
					0.800000011920929,
					0.800000011920929,
					0.800000011920929,
					1
				],
				"metallicFactor":0,
				"roughnessFactor":0.5
			}
		},
		{
			"doubleSided":true,
			"name":"Material.002",
			"pbrMetallicRoughness":{
				"baseColorFactor":[
					0.800000011920929,
					0.800000011920929,
					0.800000011920929,
					1
				],
				"metallicFactor":0,
				"roughnessFactor":0.5
			}
		},
		{
			"doubleSided":true,
			"name":"Material",
			"pbrMetallicRoughness":{
				"baseColorFactor":[
					0.800000011920929,
					0.800000011920929,
					0.800000011920929,
					1
				],
				"metallicFactor":0,
				"roughnessFactor":0.5
			}
		},
		{
			"doubleSided":true,
			"name":"Material.004",
			"pbrMetallicRoughness":{
				"baseColorFactor":[
					0.800000011920929,
					0.800000011920929,
					0.800000011920929,
					1
				],
				"metallicFactor":0,
				"roughnessFactor":0.5
			}
		},
		{
			"doubleSided":true,
			"name":"Material.005",
			"pbrMetallicRoughness":{
				"baseColorFactor":[
					0.800000011920929,
					0.800000011920929,
					0.800000011920929,
					1
				],
				"metallicFactor":0,
				"roughnessFactor":0.5
			}
		},
		{
			"doubleSided":true,
			"name":"Material.006",
			"pbrMetallicRoughness":{
				"baseColorFactor":[
					0.800000011920929,
					0.800000011920929,
					0.800000011920929,
					1
				],
				"metallicFactor":0,
				"roughnessFactor":0.5
			}
		}
	],
	"meshes":[
		{
			"name":"Cube.004",
			"primitives":[
				{
					"attributes":{
						"POSITION":0,
						"NORMAL":1,
						"TEXCOORD_0":2
					},
					"indices":3,
					"material":0
				},
				{
					"attributes":{
						"POSITION":4,
						"NORMAL":5,
						"TEXCOORD_0":6
					},
					"indices":7,
					"material":1
				}
			]
		},
		{
			"name":"Cube.003",
			"primitives":[
				{
					"attributes":{
						"POSITION":8,
						"NORMAL":9,
						"TEXCOORD_0":10
					},
					"indices":11
				}
			]
		},
		{
			"name":"Cube.005",
			"primitives":[
				{
					"attributes":{
						"POSITION":12,
						"NORMAL":13,
						"TEXCOORD_0":14
					},
					"indices":15,
					"material":2
				},
				{
					"attributes":{
						"POSITION":16,
						"NORMAL":17,
						"TEXCOORD_0":18
					},
					"indices":19,
					"material":3
				}
			]
		},
		{
			"name":"Cube.006",
			"primitives":[
				{
					"attributes":{
						"POSITION":20,
						"NORMAL":21,
						"TEXCOORD_0":22
					},
					"indices":23,
					"material":4
				},
				{
					"attributes":{
						"POSITION":24,
						"NORMAL":25,
						"TEXCOORD_0":26
					},
					"indices":27,
					"material":5
				}
			]
		}
	],
	"accessors":[
		{
			"bufferView":0,
			"componentType":5126,
			"count":122,
			"max":[
				1.6199997663497925,
				1.2149999141693115,
				1.21842622756958
			],
			"min":[
				-1.619999885559082,
				-1.2149999141693115,
				-0.8397016525268555
			],
			"type":"VEC3"
		},
		{
			"bufferView":1,
			"componentType":5126,
			"count":122,
			"type":"VEC3"
		},
		{
			"bufferView":2,
			"componentType":5126,
			"count":122,
			"type":"VEC2"
		},
		{
			"bufferView":3,
			"componentType":5123,
			"count":210,
			"type":"SCALAR"
		},
		{
			"bufferView":4,
			"componentType":5126,
			"count":26,
			"max":[
				1.6199997663497925,
				1.2149999141693115,
				-0.8397016525268555
			],
			"min":[
				-1.619999885559082,
				-1.2149999141693115,
				-0.8397016525268555
			],
			"type":"VEC3"
		},
		{
			"bufferView":5,
			"componentType":5126,
			"count":26,
			"type":"VEC3"
		},
		{
			"bufferView":6,
			"componentType":5126,
			"count":26,
			"type":"VEC2"
		},
		{
			"bufferView":7,
			"componentType":5123,
			"count":78,
			"type":"SCALAR"
		},
		{
			"bufferView":8,
			"componentType":5126,
			"count":72,
			"max":[
				1.6837996244430542,
				1.2628498077392578,
				0.989282488822937
			],
			"min":[
				-1.6837997436523438,
				-1.2628498077392578,
				-0.989282488822937
			],
			"type":"VEC3"
		},
		{
			"bufferView":9,
			"componentType":5126,
			"count":72,
			"type":"VEC3"
		},
		{
			"bufferView":10,
			"componentType":5126,
			"count":72,
			"type":"VEC2"
		},
		{
			"bufferView":11,
			"componentType":5123,
			"count":132,
			"type":"SCALAR"
		},
		{
			"bufferView":12,
			"componentType":5126,
			"count":54,
			"max":[
				1.515419602394104,
				1.13656485080719,
				-0.6413066387176514
			],
			"min":[
				-0.0019468545215204358,
				-1.13656485080719,
				-0.7353358268737793
			],
			"type":"VEC3"
		},
		{
			"bufferView":13,
			"componentType":5126,
			"count":54,
			"type":"VEC3"
		},
		{
			"bufferView":14,
			"componentType":5126,
			"count":54,
			"type":"VEC2"
		},
		{
			"bufferView":15,
			"componentType":5123,
			"count":108,
			"type":"SCALAR"
		},
		{
			"bufferView":16,
			"componentType":5126,
			"count":48,
			"max":[
				0.13140882551670074,
				1.13656485080719,
				-0.7353358268737793
			],
			"min":[
				-0.0019468545215204358,
				-1.13656485080719,
				-0.762336015701294
			],
			"type":"VEC3"
		},
		{
			"bufferView":17,
			"componentType":5126,
			"count":48,
			"type":"VEC3"
		},
		{
			"bufferView":18,
			"componentType":5126,
			"count":48,
			"type":"VEC2"
		},
		{
			"bufferView":19,
			"componentType":5123,
			"count":102,
			"type":"SCALAR"
		},
		{
			"bufferView":20,
			"componentType":5126,
			"count":54,
			"max":[
				0,
				1.13656485080719,
				-0.6413066387176514
			],
			"min":[
				-1.5154197216033936,
				-1.13656485080719,
				-0.7353358268737793
			],
			"type":"VEC3"
		},
		{
			"bufferView":21,
			"componentType":5126,
			"count":54,
			"type":"VEC3"
		},
		{
			"bufferView":22,
			"componentType":5126,
			"count":54,
			"type":"VEC2"
		},
		{
			"bufferView":23,
			"componentType":5123,
			"count":108,
			"type":"SCALAR"
		},
		{
			"bufferView":24,
			"componentType":5126,
			"count":48,
			"max":[
				0,
				1.13656485080719,
				-0.7353358268737793
			],
			"min":[
				-0.12156591564416885,
				-1.13656485080719,
				-0.7623348236083984
			],
			"type":"VEC3"
		},
		{
			"bufferView":25,
			"componentType":5126,
			"count":48,
			"type":"VEC3"
		},
		{
			"bufferView":26,
			"componentType":5126,
			"count":48,
			"type":"VEC2"
		},
		{
			"bufferView":27,
			"componentType":5123,
			"count":102,
			"type":"SCALAR"
		}
	],
	"bufferViews":[
		{
			"buffer":0,
			"byteLength":1464,
			"byteOffset":0,
			"target":34962
		},
		{
			"buffer":0,
			"byteLength":1464,
			"byteOffset":1464,
			"target":34962
		},
		{
			"buffer":0,
			"byteLength":976,
			"byteOffset":2928,
			"target":34962
		},
		{
			"buffer":0,
			"byteLength":420,
			"byteOffset":3904,
			"target":34963
		},
		{
			"buffer":0,
			"byteLength":312,
			"byteOffset":4324,
			"target":34962
		},
		{
			"buffer":0,
			"byteLength":312,
			"byteOffset":4636,
			"target":34962
		},
		{
			"buffer":0,
			"byteLength":208,
			"byteOffset":4948,
			"target":34962
		},
		{
			"buffer":0,
			"byteLength":156,
			"byteOffset":5156,
			"target":34963
		},
		{
			"buffer":0,
			"byteLength":864,
			"byteOffset":5312,
			"target":34962
		},
		{
			"buffer":0,
			"byteLength":864,
			"byteOffset":6176,
			"target":34962
		},
		{
			"buffer":0,
			"byteLength":576,
			"byteOffset":7040,
			"target":34962
		},
		{
			"buffer":0,
			"byteLength":264,
			"byteOffset":7616,
			"target":34963
		},
		{
			"buffer":0,
			"byteLength":648,
			"byteOffset":7880,
			"target":34962
		},
		{
			"buffer":0,
			"byteLength":648,
			"byteOffset":8528,
			"target":34962
		},
		{
			"buffer":0,
			"byteLength":432,
			"byteOffset":9176,
			"target":34962
		},
		{
			"buffer":0,
			"byteLength":216,
			"byteOffset":9608,
			"target":34963
		},
		{
			"buffer":0,
			"byteLength":576,
			"byteOffset":9824,
			"target":34962
		},
		{
			"buffer":0,
			"byteLength":576,
			"byteOffset":10400,
			"target":34962
		},
		{
			"buffer":0,
			"byteLength":384,
			"byteOffset":10976,
			"target":34962
		},
		{
			"buffer":0,
			"byteLength":204,
			"byteOffset":11360,
			"target":34963
		},
		{
			"buffer":0,
			"byteLength":648,
			"byteOffset":11564,
			"target":34962
		},
		{
			"buffer":0,
			"byteLength":648,
			"byteOffset":12212,
			"target":34962
		},
		{
			"buffer":0,
			"byteLength":432,
			"byteOffset":12860,
			"target":34962
		},
		{
			"buffer":0,
			"byteLength":216,
			"byteOffset":13292,
			"target":34963
		},
		{
			"buffer":0,
			"byteLength":576,
			"byteOffset":13508,
			"target":34962
		},
		{
			"buffer":0,
			"byteLength":576,
			"byteOffset":14084,
			"target":34962
		},
		{
			"buffer":0,
			"byteLength":384,
			"byteOffset":14660,
			"target":34962
		},
		{
			"buffer":0,
			"byteLength":204,
			"byteOffset":15044,
			"target":34963
		}
	],
	"buffers":[
		{
			"byteLength":15248,
			"uri":"elevator-c7d76d2c9845f70d12401250f585076b.bin"
		}
	]
}
