{
	"asset":{
		"generator":"Khronos glTF Blender I/O v4.3.47",
		"version":"2.0"
	},
	"scene":0,
	"scenes":[
		{
			"name":"Scene",
			"nodes":[
				0,
				1,
				2,
				3
			]
		}
	],
	"nodes":[
		{
			"mesh":0,
			"name":"Boolean",
			"scale":[
				1,
				1,
				1.1557916402816772
			]
		},
		{
			"mesh":1,
			"name":"Boolean.001",
			"scale":[
				1,
				1,
				1.1557916402816772
			],
			"translation":[
				0,
				0,
				-0.12303653359413147
			]
		},
		{
			"mesh":2,
			"name":"Door",
			"translation":[
				0,
				0,
				2.8404343128204346
			]
		},
		{
			"mesh":3,
			"name":"Door.001",
			"translation":[
				0,
				0,
				2.8404343128204346
			]
		}
	],
	"materials":[
		{
			"doubleSided":true,
			"name":"Material.001",
			"pbrMetallicRoughness":{
				"baseColorFactor":[
					0.800000011920929,
					0.800000011920929,
					0.800000011920929,
					1
				],
				"metallicFactor":0,
				"roughnessFactor":0.5
			}
		},
		{
			"doubleSided":true,
			"name":"Material.002",
			"pbrMetallicRoughness":{
				"baseColorFactor":[
					0.800000011920929,
					0.800000011920929,
					0.800000011920929,
					1
				],
				"metallicFactor":0,
				"roughnessFactor":0.5
			}
		},
		{
			"doubleSided":true,
			"name":"Material.003",
			"pbrMetallicRoughness":{
				"baseColorFactor":[
					0.800000011920929,
					0.800000011920929,
					0.800000011920929,
					1
				],
				"metallicFactor":0,
				"roughnessFactor":0.5
			}
		}
	],
	"meshes":[
		{
			"name":"Cube.004",
			"primitives":[
				{
					"attributes":{
						"POSITION":0,
						"NORMAL":1,
						"TEXCOORD_0":2
					},
					"indices":3,
					"material":0
				},
				{
					"attributes":{
						"POSITION":4,
						"NORMAL":5,
						"TEXCOORD_0":6
					},
					"indices":7,
					"material":1
				},
				{
					"attributes":{
						"POSITION":8,
						"NORMAL":9,
						"TEXCOORD_0":10
					},
					"indices":11,
					"material":2
				}
			]
		},
		{
			"name":"Cube.003",
			"primitives":[
				{
					"attributes":{
						"POSITION":12,
						"NORMAL":13,
						"TEXCOORD_0":14
					},
					"indices":15
				}
			]
		},
		{
			"name":"Cube.005",
			"primitives":[
				{
					"attributes":{
						"POSITION":16,
						"NORMAL":17,
						"TEXCOORD_0":18,
						"TANGENT":19
					},
					"indices":20
				}
			]
		},
		{
			"name":"Cube.006",
			"primitives":[
				{
					"attributes":{
						"POSITION":21,
						"NORMAL":22,
						"TEXCOORD_0":23,
						"TANGENT":24
					},
					"indices":25
				}
			]
		}
	],
	"accessors":[
		{
			"bufferView":0,
			"componentType":5126,
			"count":109,
			"max":[
				1.7999998331069946,
				1.3499999046325684,
				0.989282488822937
			],
			"min":[
				-1.7999999523162842,
				-1.3499999046325684,
				-0.989282488822937
			],
			"type":"VEC3"
		},
		{
			"bufferView":1,
			"componentType":5126,
			"count":109,
			"type":"VEC3"
		},
		{
			"bufferView":2,
			"componentType":5126,
			"count":109,
			"type":"VEC2"
		},
		{
			"bufferView":3,
			"componentType":5123,
			"count":189,
			"type":"SCALAR"
		},
		{
			"bufferView":4,
			"componentType":5126,
			"count":26,
			"max":[
				1.7999998331069946,
				1.3499999046325684,
				-0.989282488822937
			],
			"min":[
				-1.7999999523162842,
				-1.3499999046325684,
				-0.989282488822937
			],
			"type":"VEC3"
		},
		{
			"bufferView":5,
			"componentType":5126,
			"count":26,
			"type":"VEC3"
		},
		{
			"bufferView":6,
			"componentType":5126,
			"count":26,
			"type":"VEC2"
		},
		{
			"bufferView":7,
			"componentType":5123,
			"count":78,
			"type":"SCALAR"
		},
		{
			"bufferView":8,
			"componentType":5126,
			"count":13,
			"max":[
				1.5224510431289673,
				-1.1418383121490479,
				0.8828303217887878
			],
			"min":[
				-1.5224510431289673,
				-1.2628498077392578,
				-0.989282488822937
			],
			"type":"VEC3"
		},
		{
			"bufferView":9,
			"componentType":5126,
			"count":13,
			"type":"VEC3"
		},
		{
			"bufferView":10,
			"componentType":5126,
			"count":13,
			"type":"VEC2"
		},
		{
			"bufferView":11,
			"componentType":5123,
			"count":21,
			"type":"SCALAR"
		},
		{
			"bufferView":12,
			"componentType":5126,
			"count":72,
			"max":[
				1.6837996244430542,
				1.2628498077392578,
				0.989282488822937
			],
			"min":[
				-1.6837997436523438,
				-1.2628498077392578,
				-0.989282488822937
			],
			"type":"VEC3"
		},
		{
			"bufferView":13,
			"componentType":5126,
			"count":72,
			"type":"VEC3"
		},
		{
			"bufferView":14,
			"componentType":5126,
			"count":72,
			"type":"VEC2"
		},
		{
			"bufferView":15,
			"componentType":5123,
			"count":132,
			"type":"SCALAR"
		},
		{
			"bufferView":16,
			"componentType":5126,
			"count":52,
			"max":[
				1.6837996244430542,
				1.2628498077392578,
				-3.763400077819824
			],
			"min":[
				-0.0021631717681884766,
				-1.2628498077392578,
				-3.8678770065307617
			],
			"type":"VEC3"
		},
		{
			"bufferView":17,
			"componentType":5126,
			"count":52,
			"type":"VEC3"
		},
		{
			"bufferView":18,
			"componentType":5126,
			"count":52,
			"type":"VEC2"
		},
		{
			"bufferView":19,
			"componentType":5126,
			"count":52,
			"type":"VEC4"
		},
		{
			"bufferView":20,
			"componentType":5123,
			"count":102,
			"type":"SCALAR"
		},
		{
			"bufferView":21,
			"componentType":5126,
			"count":52,
			"max":[
				0,
				1.2628498077392578,
				-3.763400077819824
			],
			"min":[
				-1.6837997436523438,
				-1.2628498077392578,
				-3.8678770065307617
			],
			"type":"VEC3"
		},
		{
			"bufferView":22,
			"componentType":5126,
			"count":52,
			"type":"VEC3"
		},
		{
			"bufferView":23,
			"componentType":5126,
			"count":52,
			"type":"VEC2"
		},
		{
			"bufferView":24,
			"componentType":5126,
			"count":52,
			"type":"VEC4"
		},
		{
			"bufferView":25,
			"componentType":5123,
			"count":102,
			"type":"SCALAR"
		}
	],
	"bufferViews":[
		{
			"buffer":0,
			"byteLength":1308,
			"byteOffset":0,
			"target":34962
		},
		{
			"buffer":0,
			"byteLength":1308,
			"byteOffset":1308,
			"target":34962
		},
		{
			"buffer":0,
			"byteLength":872,
			"byteOffset":2616,
			"target":34962
		},
		{
			"buffer":0,
			"byteLength":378,
			"byteOffset":3488,
			"target":34963
		},
		{
			"buffer":0,
			"byteLength":312,
			"byteOffset":3868,
			"target":34962
		},
		{
			"buffer":0,
			"byteLength":312,
			"byteOffset":4180,
			"target":34962
		},
		{
			"buffer":0,
			"byteLength":208,
			"byteOffset":4492,
			"target":34962
		},
		{
			"buffer":0,
			"byteLength":156,
			"byteOffset":4700,
			"target":34963
		},
		{
			"buffer":0,
			"byteLength":156,
			"byteOffset":4856,
			"target":34962
		},
		{
			"buffer":0,
			"byteLength":156,
			"byteOffset":5012,
			"target":34962
		},
		{
			"buffer":0,
			"byteLength":104,
			"byteOffset":5168,
			"target":34962
		},
		{
			"buffer":0,
			"byteLength":42,
			"byteOffset":5272,
			"target":34963
		},
		{
			"buffer":0,
			"byteLength":864,
			"byteOffset":5316,
			"target":34962
		},
		{
			"buffer":0,
			"byteLength":864,
			"byteOffset":6180,
			"target":34962
		},
		{
			"buffer":0,
			"byteLength":576,
			"byteOffset":7044,
			"target":34962
		},
		{
			"buffer":0,
			"byteLength":264,
			"byteOffset":7620,
			"target":34963
		},
		{
			"buffer":0,
			"byteLength":624,
			"byteOffset":7884,
			"target":34962
		},
		{
			"buffer":0,
			"byteLength":624,
			"byteOffset":8508,
			"target":34962
		},
		{
			"buffer":0,
			"byteLength":416,
			"byteOffset":9132,
			"target":34962
		},
		{
			"buffer":0,
			"byteLength":832,
			"byteOffset":9548,
			"target":34962
		},
		{
			"buffer":0,
			"byteLength":204,
			"byteOffset":10380,
			"target":34963
		},
		{
			"buffer":0,
			"byteLength":624,
			"byteOffset":10584,
			"target":34962
		},
		{
			"buffer":0,
			"byteLength":624,
			"byteOffset":11208,
			"target":34962
		},
		{
			"buffer":0,
			"byteLength":416,
			"byteOffset":11832,
			"target":34962
		},
		{
			"buffer":0,
			"byteLength":832,
			"byteOffset":12248,
			"target":34962
		},
		{
			"buffer":0,
			"byteLength":204,
			"byteOffset":13080,
			"target":34963
		}
	],
	"buffers":[
		{
			"byteLength":13284,
			"uri":"elevator-06f96f0369ccb888f6c67ccef0d9f213.bin"
		}
	]
}
