{
	"asset":{
		"generator":"Khronos glTF Blender I/O v4.3.47",
		"version":"2.0"
	},
	"scene":0,
	"scenes":[
		{
			"name":"Scene",
			"nodes":[
				0,
				1,
				2,
				3,
				4
			]
		}
	],
	"nodes":[
		{
			"mesh":0,
			"name":"Entrance"
		},
		{
			"mesh":1,
			"name":"Boolean",
			"scale":[
				2,
				1.5,
				3.838041067123413
			],
			"translation":[
				0,
				-0.3747375011444092,
				0.45922791957855225
			]
		},
		{
			"mesh":2,
			"name":"Border",
			"scale":[
				2.3722753524780273,
				1.7792065143585205,
				0.07500000298023224
			],
			"translation":[
				0,
				-0.3747375011444092,
				2.074739694595337
			]
		},
		{
			"mesh":3,
			"name":"Ramp",
			"rotation":[
				0.04453849792480469,
				0,
				0,
				0.9990077018737793
			],
			"translation":[
				0,
				-2.9810309410095215,
				4.508633136749268
			]
		},
		{
			"mesh":4,
			"name":"Railing",
			"rotation":[
				0.8092822432518005,
				0,
				0,
				0.5874200463294983
			],
			"translation":[
				0.9063693284988403,
				-0.4381933808326721,
				3.1519370079040527
			]
		}
	],
	"materials":[
		{
			"doubleSided":true,
			"name":"Material.001",
			"pbrMetallicRoughness":{
				"baseColorFactor":[
					0.800000011920929,
					0.800000011920929,
					0.800000011920929,
					1
				],
				"metallicFactor":0,
				"roughnessFactor":0.5
			}
		},
		{
			"doubleSided":true,
			"name":"Material.002",
			"pbrMetallicRoughness":{
				"baseColorFactor":[
					0.800000011920929,
					0.800000011920929,
					0.800000011920929,
					1
				],
				"metallicFactor":0,
				"roughnessFactor":0.5
			}
		},
		{
			"doubleSided":true,
			"name":"Material.005",
			"pbrMetallicRoughness":{
				"baseColorFactor":[
					0.800000011920929,
					0.800000011920929,
					0.800000011920929,
					1
				],
				"metallicFactor":0,
				"roughnessFactor":0.5
			}
		},
		{
			"doubleSided":true,
			"name":"Material",
			"pbrMetallicRoughness":{
				"baseColorFactor":[
					0.800000011920929,
					0.800000011920929,
					0.800000011920929,
					1
				],
				"metallicFactor":0,
				"roughnessFactor":0.5
			}
		},
		{
			"doubleSided":true,
			"name":"Material.003",
			"pbrMetallicRoughness":{
				"baseColorFactor":[
					0.800000011920929,
					0.800000011920929,
					0.800000011920929,
					1
				],
				"metallicFactor":0,
				"roughnessFactor":0.5
			}
		},
		{
			"doubleSided":true,
			"name":"Material.004",
			"pbrMetallicRoughness":{
				"baseColorFactor":[
					0.800000011920929,
					0.800000011920929,
					0.800000011920929,
					1
				],
				"metallicFactor":0,
				"roughnessFactor":0.5
			}
		}
	],
	"meshes":[
		{
			"name":"Cube.003",
			"primitives":[
				{
					"attributes":{
						"POSITION":0,
						"NORMAL":1,
						"TEXCOORD_0":2
					},
					"indices":3,
					"material":0
				},
				{
					"attributes":{
						"POSITION":4,
						"NORMAL":5,
						"TEXCOORD_0":6
					},
					"indices":7,
					"material":1
				}
			]
		},
		{
			"name":"Cube.004",
			"primitives":[
				{
					"attributes":{
						"POSITION":8,
						"NORMAL":9,
						"TEXCOORD_0":10
					},
					"indices":11
				}
			]
		},
		{
			"name":"Cube.005",
			"primitives":[
				{
					"attributes":{
						"POSITION":12,
						"NORMAL":13,
						"TEXCOORD_0":14
					},
					"indices":15,
					"material":2
				},
				{
					"attributes":{
						"POSITION":16,
						"NORMAL":17,
						"TEXCOORD_0":18
					},
					"indices":19,
					"material":3
				}
			]
		},
		{
			"name":"Cube.007",
			"primitives":[
				{
					"attributes":{
						"POSITION":20,
						"NORMAL":21,
						"TEXCOORD_0":22
					},
					"indices":23
				}
			]
		},
		{
			"name":"Cube.011",
			"primitives":[
				{
					"attributes":{
						"POSITION":24,
						"NORMAL":25,
						"TEXCOORD_0":26
					},
					"indices":27,
					"material":4
				},
				{
					"attributes":{
						"POSITION":28,
						"NORMAL":29,
						"TEXCOORD_0":30
					},
					"indices":31,
					"material":5
				}
			]
		}
	],
	"accessors":[
		{
			"bufferView":0,
			"componentType":5126,
			"count":120,
			"max":[
				5,
				3,
				2
			],
			"min":[
				-5,
				-3,
				-19.41079330444336
			],
			"type":"VEC3"
		},
		{
			"bufferView":1,
			"componentType":5126,
			"count":120,
			"type":"VEC3"
		},
		{
			"bufferView":2,
			"componentType":5126,
			"count":120,
			"type":"VEC2"
		},
		{
			"bufferView":3,
			"componentType":5123,
			"count":240,
			"type":"SCALAR"
		},
		{
			"bufferView":4,
			"componentType":5126,
			"count":48,
			"max":[
				2,
				1.1252624988555908,
				2
			],
			"min":[
				-2,
				-1.8747375011444092,
				1.4777247905731201
			],
			"type":"VEC3"
		},
		{
			"bufferView":5,
			"componentType":5126,
			"count":48,
			"type":"VEC3"
		},
		{
			"bufferView":6,
			"componentType":5126,
			"count":48,
			"type":"VEC2"
		},
		{
			"bufferView":7,
			"componentType":5123,
			"count":72,
			"type":"SCALAR"
		},
		{
			"bufferView":8,
			"componentType":5126,
			"count":72,
			"max":[
				1,
				1,
				1
			],
			"min":[
				-1,
				-1,
				-1
			],
			"type":"VEC3"
		},
		{
			"bufferView":9,
			"componentType":5126,
			"count":72,
			"type":"VEC3"
		},
		{
			"bufferView":10,
			"componentType":5126,
			"count":72,
			"type":"VEC2"
		},
		{
			"bufferView":11,
			"componentType":5123,
			"count":132,
			"type":"SCALAR"
		},
		{
			"bufferView":12,
			"componentType":5126,
			"count":126,
			"max":[
				1.0000001192092896,
				1,
				-0.2569258511066437
			],
			"min":[
				-1.0000001192092896,
				-1,
				-1.0000001192092896
			],
			"type":"VEC3"
		},
		{
			"bufferView":13,
			"componentType":5126,
			"count":126,
			"type":"VEC3"
		},
		{
			"bufferView":14,
			"componentType":5126,
			"count":126,
			"type":"VEC2"
		},
		{
			"bufferView":15,
			"componentType":5123,
			"count":234,
			"type":"SCALAR"
		},
		{
			"bufferView":16,
			"componentType":5126,
			"count":26,
			"max":[
				1.0000001192092896,
				1,
				-0.2569258511066437
			],
			"min":[
				-1.0000001192092896,
				-1,
				-0.2569258511066437
			],
			"type":"VEC3"
		},
		{
			"bufferView":17,
			"componentType":5126,
			"count":26,
			"type":"VEC3"
		},
		{
			"bufferView":18,
			"componentType":5126,
			"count":26,
			"type":"VEC2"
		},
		{
			"bufferView":19,
			"componentType":5123,
			"count":78,
			"type":"SCALAR"
		},
		{
			"bufferView":20,
			"componentType":5126,
			"count":40,
			"max":[
				1,
				0.8667922019958496,
				2.345400810241699
			],
			"min":[
				-1,
				-0.7850887775421143,
				-2.6066837310791016
			],
			"type":"VEC3"
		},
		{
			"bufferView":21,
			"componentType":5126,
			"count":40,
			"type":"VEC3"
		},
		{
			"bufferView":22,
			"componentType":5126,
			"count":40,
			"type":"VEC2"
		},
		{
			"bufferView":23,
			"componentType":5123,
			"count":84,
			"type":"SCALAR"
		},
		{
			"bufferView":24,
			"componentType":5126,
			"count":130,
			"max":[
				0.0490896999835968,
				1.6809592247009277,
				1.9224145412445068
			],
			"min":[
				-1.861828327178955,
				-0.6772958040237427,
				0.927162766456604
			],
			"type":"VEC3"
		},
		{
			"bufferView":25,
			"componentType":5126,
			"count":130,
			"type":"VEC3"
		},
		{
			"bufferView":26,
			"componentType":5126,
			"count":130,
			"type":"VEC2"
		},
		{
			"bufferView":27,
			"componentType":5123,
			"count":240,
			"type":"SCALAR"
		},
		{
			"bufferView":28,
			"componentType":5126,
			"count":96,
			"max":[
				0.030574358999729156,
				1.6809592247009277,
				1.9224145412445068
			],
			"min":[
				-1.8433129787445068,
				-0.6342592239379883,
				0.9799430966377258
			],
			"type":"VEC3"
		},
		{
			"bufferView":29,
			"componentType":5126,
			"count":96,
			"type":"VEC3"
		},
		{
			"bufferView":30,
			"componentType":5126,
			"count":96,
			"type":"VEC2"
		},
		{
			"bufferView":31,
			"componentType":5123,
			"count":144,
			"type":"SCALAR"
		}
	],
	"bufferViews":[
		{
			"buffer":0,
			"byteLength":1440,
			"byteOffset":0,
			"target":34962
		},
		{
			"buffer":0,
			"byteLength":1440,
			"byteOffset":1440,
			"target":34962
		},
		{
			"buffer":0,
			"byteLength":960,
			"byteOffset":2880,
			"target":34962
		},
		{
			"buffer":0,
			"byteLength":480,
			"byteOffset":3840,
			"target":34963
		},
		{
			"buffer":0,
			"byteLength":576,
			"byteOffset":4320,
			"target":34962
		},
		{
			"buffer":0,
			"byteLength":576,
			"byteOffset":4896,
			"target":34962
		},
		{
			"buffer":0,
			"byteLength":384,
			"byteOffset":5472,
			"target":34962
		},
		{
			"buffer":0,
			"byteLength":144,
			"byteOffset":5856,
			"target":34963
		},
		{
			"buffer":0,
			"byteLength":864,
			"byteOffset":6000,
			"target":34962
		},
		{
			"buffer":0,
			"byteLength":864,
			"byteOffset":6864,
			"target":34962
		},
		{
			"buffer":0,
			"byteLength":576,
			"byteOffset":7728,
			"target":34962
		},
		{
			"buffer":0,
			"byteLength":264,
			"byteOffset":8304,
			"target":34963
		},
		{
			"buffer":0,
			"byteLength":1512,
			"byteOffset":8568,
			"target":34962
		},
		{
			"buffer":0,
			"byteLength":1512,
			"byteOffset":10080,
			"target":34962
		},
		{
			"buffer":0,
			"byteLength":1008,
			"byteOffset":11592,
			"target":34962
		},
		{
			"buffer":0,
			"byteLength":468,
			"byteOffset":12600,
			"target":34963
		},
		{
			"buffer":0,
			"byteLength":312,
			"byteOffset":13068,
			"target":34962
		},
		{
			"buffer":0,
			"byteLength":312,
			"byteOffset":13380,
			"target":34962
		},
		{
			"buffer":0,
			"byteLength":208,
			"byteOffset":13692,
			"target":34962
		},
		{
			"buffer":0,
			"byteLength":156,
			"byteOffset":13900,
			"target":34963
		},
		{
			"buffer":0,
			"byteLength":480,
			"byteOffset":14056,
			"target":34962
		},
		{
			"buffer":0,
			"byteLength":480,
			"byteOffset":14536,
			"target":34962
		},
		{
			"buffer":0,
			"byteLength":320,
			"byteOffset":15016,
			"target":34962
		},
		{
			"buffer":0,
			"byteLength":168,
			"byteOffset":15336,
			"target":34963
		},
		{
			"buffer":0,
			"byteLength":1560,
			"byteOffset":15504,
			"target":34962
		},
		{
			"buffer":0,
			"byteLength":1560,
			"byteOffset":17064,
			"target":34962
		},
		{
			"buffer":0,
			"byteLength":1040,
			"byteOffset":18624,
			"target":34962
		},
		{
			"buffer":0,
			"byteLength":480,
			"byteOffset":19664,
			"target":34963
		},
		{
			"buffer":0,
			"byteLength":1152,
			"byteOffset":20144,
			"target":34962
		},
		{
			"buffer":0,
			"byteLength":1152,
			"byteOffset":21296,
			"target":34962
		},
		{
			"buffer":0,
			"byteLength":768,
			"byteOffset":22448,
			"target":34962
		},
		{
			"buffer":0,
			"byteLength":288,
			"byteOffset":23216,
			"target":34963
		}
	],
	"buffers":[
		{
			"byteLength":23504,
			"uri":"entrance-2aa8118aced4292cca3a5e4735e35d10.bin"
		}
	]
}
