{
	"asset":{
		"generator":"Khronos glTF Blender I/O v4.3.47",
		"version":"2.0"
	},
	"scene":0,
	"scenes":[
		{
			"name":"Scene",
			"nodes":[
				0,
				1,
				2,
				3,
				4
			]
		}
	],
	"nodes":[
		{
			"mesh":0,
			"name":"Boolean",
			"scale":[
				2,
				1.5,
				3.838041067123413
			],
			"translation":[
				0,
				-0.3747375011444092,
				0.45922791957855225
			]
		},
		{
			"mesh":1,
			"name":"Border"
		},
		{
			"mesh":2,
			"name":"Ramp"
		},
		{
			"mesh":3,
			"name":"Railing"
		},
		{
			"mesh":4,
			"name":"Entrance.001"
		}
	],
	"materials":[
		{
			"doubleSided":true,
			"name":"Material.005",
			"pbrMetallicRoughness":{
				"baseColorFactor":[
					0.800000011920929,
					0.800000011920929,
					0.800000011920929,
					1
				],
				"metallicFactor":0,
				"roughnessFactor":0.5
			}
		},
		{
			"doubleSided":true,
			"name":"Material",
			"pbrMetallicRoughness":{
				"baseColorFactor":[
					0.800000011920929,
					0.800000011920929,
					0.800000011920929,
					1
				],
				"metallicFactor":0,
				"roughnessFactor":0.5
			}
		},
		{
			"doubleSided":true,
			"name":"Material.003",
			"pbrMetallicRoughness":{
				"baseColorFactor":[
					0.800000011920929,
					0.800000011920929,
					0.800000011920929,
					1
				],
				"metallicFactor":0,
				"roughnessFactor":0.5
			}
		},
		{
			"doubleSided":true,
			"name":"Material.004",
			"pbrMetallicRoughness":{
				"baseColorFactor":[
					0.800000011920929,
					0.800000011920929,
					0.800000011920929,
					1
				],
				"metallicFactor":0,
				"roughnessFactor":0.5
			}
		},
		{
			"doubleSided":true,
			"name":"Material.001",
			"pbrMetallicRoughness":{
				"baseColorFactor":[
					0.800000011920929,
					0.800000011920929,
					0.800000011920929,
					1
				],
				"metallicFactor":0,
				"roughnessFactor":0.5
			}
		},
		{
			"doubleSided":true,
			"name":"Material.002",
			"pbrMetallicRoughness":{
				"baseColorFactor":[
					0.800000011920929,
					0.800000011920929,
					0.800000011920929,
					1
				],
				"metallicFactor":0,
				"roughnessFactor":0.5
			}
		}
	],
	"meshes":[
		{
			"name":"Cube.004",
			"primitives":[
				{
					"attributes":{
						"POSITION":0,
						"NORMAL":1,
						"TEXCOORD_0":2
					},
					"indices":3
				}
			]
		},
		{
			"name":"Cube.005",
			"primitives":[
				{
					"attributes":{
						"POSITION":4,
						"NORMAL":5,
						"TEXCOORD_0":6
					},
					"indices":7,
					"material":0
				},
				{
					"attributes":{
						"POSITION":8,
						"NORMAL":9,
						"TEXCOORD_0":10
					},
					"indices":11,
					"material":1
				}
			]
		},
		{
			"name":"Cube.007",
			"primitives":[
				{
					"attributes":{
						"POSITION":12,
						"NORMAL":13,
						"TEXCOORD_0":14
					},
					"indices":15
				}
			]
		},
		{
			"name":"Cube.011",
			"primitives":[
				{
					"attributes":{
						"POSITION":16,
						"NORMAL":17,
						"TEXCOORD_0":18
					},
					"indices":19,
					"material":2
				},
				{
					"attributes":{
						"POSITION":20,
						"NORMAL":21,
						"TEXCOORD_0":22
					},
					"indices":23,
					"material":3
				}
			]
		},
		{
			"name":"Cube.001",
			"primitives":[
				{
					"attributes":{
						"POSITION":24,
						"NORMAL":25,
						"TEXCOORD_0":26
					},
					"indices":27,
					"material":4
				},
				{
					"attributes":{
						"POSITION":28,
						"NORMAL":29,
						"TEXCOORD_0":30
					},
					"indices":31,
					"material":5
				}
			]
		}
	],
	"accessors":[
		{
			"bufferView":0,
			"componentType":5126,
			"count":72,
			"max":[
				1,
				1,
				1
			],
			"min":[
				-1,
				-1,
				-1
			],
			"type":"VEC3"
		},
		{
			"bufferView":1,
			"componentType":5126,
			"count":72,
			"type":"VEC3"
		},
		{
			"bufferView":2,
			"componentType":5126,
			"count":72,
			"type":"VEC2"
		},
		{
			"bufferView":3,
			"componentType":5123,
			"count":132,
			"type":"SCALAR"
		},
		{
			"bufferView":4,
			"componentType":5126,
			"count":126,
			"max":[
				2.3722755908966064,
				1.4044690132141113,
				2.0554702281951904
			],
			"min":[
				-2.3722755908966064,
				-2.1539440155029297,
				1.999739646911621
			],
			"type":"VEC3"
		},
		{
			"bufferView":5,
			"componentType":5126,
			"count":126,
			"type":"VEC3"
		},
		{
			"bufferView":6,
			"componentType":5126,
			"count":126,
			"type":"VEC2"
		},
		{
			"bufferView":7,
			"componentType":5123,
			"count":234,
			"type":"SCALAR"
		},
		{
			"bufferView":8,
			"componentType":5126,
			"count":26,
			"max":[
				2.3722755908966064,
				1.4044690132141113,
				2.0554702281951904
			],
			"min":[
				-2.3722755908966064,
				-2.1539440155029297,
				2.0554702281951904
			],
			"type":"VEC3"
		},
		{
			"bufferView":9,
			"componentType":5126,
			"count":26,
			"type":"VEC3"
		},
		{
			"bufferView":10,
			"componentType":5126,
			"count":26,
			"type":"VEC2"
		},
		{
			"bufferView":11,
			"componentType":5123,
			"count":78,
			"type":"SCALAR"
		},
		{
			"bufferView":12,
			"componentType":5126,
			"count":40,
			"max":[
				1,
				-1.888899564743042,
				6.785057067871094
			],
			"min":[
				-1,
				-3.968531847000122,
				1.979233741760254
			],
			"type":"VEC3"
		},
		{
			"bufferView":13,
			"componentType":5126,
			"count":40,
			"type":"VEC3"
		},
		{
			"bufferView":14,
			"componentType":5126,
			"count":40,
			"type":"VEC2"
		},
		{
			"bufferView":15,
			"componentType":5123,
			"count":84,
			"type":"SCALAR"
		},
		{
			"bufferView":16,
			"componentType":5126,
			"count":128,
			"max":[
				0.9554589986801147,
				-1.1122756004333496,
				4.247575759887695
			],
			"min":[
				-0.9554589986801147,
				-2.7709596157073975,
				2.192646026611328
			],
			"type":"VEC3"
		},
		{
			"bufferView":17,
			"componentType":5126,
			"count":128,
			"type":"VEC3"
		},
		{
			"bufferView":18,
			"componentType":5126,
			"count":128,
			"type":"VEC2"
		},
		{
			"bufferView":19,
			"componentType":5123,
			"count":240,
			"type":"SCALAR"
		},
		{
			"bufferView":20,
			"componentType":5126,
			"count":96,
			"max":[
				0.9369437098503113,
				-1.1892690658569336,
				4.15963077545166
			],
			"min":[
				-0.9369437098503113,
				-2.7709596157073975,
				2.2400522232055664
			],
			"type":"VEC3"
		},
		{
			"bufferView":21,
			"componentType":5126,
			"count":96,
			"type":"VEC3"
		},
		{
			"bufferView":22,
			"componentType":5126,
			"count":96,
			"type":"VEC2"
		},
		{
			"bufferView":23,
			"componentType":5123,
			"count":144,
			"type":"SCALAR"
		},
		{
			"bufferView":24,
			"componentType":5126,
			"count":172,
			"max":[
				5,
				3,
				2
			],
			"min":[
				-5,
				-3,
				-19.41079330444336
			],
			"type":"VEC3"
		},
		{
			"bufferView":25,
			"componentType":5126,
			"count":172,
			"type":"VEC3"
		},
		{
			"bufferView":26,
			"componentType":5126,
			"count":172,
			"type":"VEC2"
		},
		{
			"bufferView":27,
			"componentType":5123,
			"count":348,
			"type":"SCALAR"
		},
		{
			"bufferView":28,
			"componentType":5126,
			"count":48,
			"max":[
				2,
				1.1252624988555908,
				2
			],
			"min":[
				-2,
				-1.8747375011444092,
				1.4777240753173828
			],
			"type":"VEC3"
		},
		{
			"bufferView":29,
			"componentType":5126,
			"count":48,
			"type":"VEC3"
		},
		{
			"bufferView":30,
			"componentType":5126,
			"count":48,
			"type":"VEC2"
		},
		{
			"bufferView":31,
			"componentType":5123,
			"count":72,
			"type":"SCALAR"
		}
	],
	"bufferViews":[
		{
			"buffer":0,
			"byteLength":864,
			"byteOffset":0,
			"target":34962
		},
		{
			"buffer":0,
			"byteLength":864,
			"byteOffset":864,
			"target":34962
		},
		{
			"buffer":0,
			"byteLength":576,
			"byteOffset":1728,
			"target":34962
		},
		{
			"buffer":0,
			"byteLength":264,
			"byteOffset":2304,
			"target":34963
		},
		{
			"buffer":0,
			"byteLength":1512,
			"byteOffset":2568,
			"target":34962
		},
		{
			"buffer":0,
			"byteLength":1512,
			"byteOffset":4080,
			"target":34962
		},
		{
			"buffer":0,
			"byteLength":1008,
			"byteOffset":5592,
			"target":34962
		},
		{
			"buffer":0,
			"byteLength":468,
			"byteOffset":6600,
			"target":34963
		},
		{
			"buffer":0,
			"byteLength":312,
			"byteOffset":7068,
			"target":34962
		},
		{
			"buffer":0,
			"byteLength":312,
			"byteOffset":7380,
			"target":34962
		},
		{
			"buffer":0,
			"byteLength":208,
			"byteOffset":7692,
			"target":34962
		},
		{
			"buffer":0,
			"byteLength":156,
			"byteOffset":7900,
			"target":34963
		},
		{
			"buffer":0,
			"byteLength":480,
			"byteOffset":8056,
			"target":34962
		},
		{
			"buffer":0,
			"byteLength":480,
			"byteOffset":8536,
			"target":34962
		},
		{
			"buffer":0,
			"byteLength":320,
			"byteOffset":9016,
			"target":34962
		},
		{
			"buffer":0,
			"byteLength":168,
			"byteOffset":9336,
			"target":34963
		},
		{
			"buffer":0,
			"byteLength":1536,
			"byteOffset":9504,
			"target":34962
		},
		{
			"buffer":0,
			"byteLength":1536,
			"byteOffset":11040,
			"target":34962
		},
		{
			"buffer":0,
			"byteLength":1024,
			"byteOffset":12576,
			"target":34962
		},
		{
			"buffer":0,
			"byteLength":480,
			"byteOffset":13600,
			"target":34963
		},
		{
			"buffer":0,
			"byteLength":1152,
			"byteOffset":14080,
			"target":34962
		},
		{
			"buffer":0,
			"byteLength":1152,
			"byteOffset":15232,
			"target":34962
		},
		{
			"buffer":0,
			"byteLength":768,
			"byteOffset":16384,
			"target":34962
		},
		{
			"buffer":0,
			"byteLength":288,
			"byteOffset":17152,
			"target":34963
		},
		{
			"buffer":0,
			"byteLength":2064,
			"byteOffset":17440,
			"target":34962
		},
		{
			"buffer":0,
			"byteLength":2064,
			"byteOffset":19504,
			"target":34962
		},
		{
			"buffer":0,
			"byteLength":1376,
			"byteOffset":21568,
			"target":34962
		},
		{
			"buffer":0,
			"byteLength":696,
			"byteOffset":22944,
			"target":34963
		},
		{
			"buffer":0,
			"byteLength":576,
			"byteOffset":23640,
			"target":34962
		},
		{
			"buffer":0,
			"byteLength":576,
			"byteOffset":24216,
			"target":34962
		},
		{
			"buffer":0,
			"byteLength":384,
			"byteOffset":24792,
			"target":34962
		},
		{
			"buffer":0,
			"byteLength":144,
			"byteOffset":25176,
			"target":34963
		}
	],
	"buffers":[
		{
			"byteLength":25320,
			"uri":"entrance-2aa8118aced4292cca3a5e4735e35d10.bin"
		}
	]
}
