{
	"asset":{
		"generator":"Khronos glTF Blender I/O v4.2.70",
		"version":"2.0"
	},
	"scene":0,
	"scenes":[
		{
			"name":"Scene",
			"nodes":[
				0
			]
		}
	],
	"nodes":[
		{
			"extras":{
				"ant_landscape":{
					"ant_terrain_name":"Landscape",
					"at_cursor":1,
					"smooth_mesh":1,
					"tri_face":0,
					"sphere_mesh":0,
					"land_material":"",
					"water_material":"",
					"texture_block":"",
					"subdivision_x":128,
					"subdivision_y":128,
					"mesh_size_x":2.0,
					"mesh_size_y":2.0,
					"mesh_size":2.0,
					"random_seed":13,
					"noise_offset_x":0.0,
					"noise_offset_y":0.0,
					"noise_offset_z":0.0,
					"noise_size_x":1.0,
					"noise_size_y":1.0,
					"noise_size_z":1.0,
					"noise_size":1.0,
					"noise_type":5,
					"basis_type":2,
					"vl_basis_type":0,
					"distortion":1.0,
					"hard_noise":0,
					"noise_depth":7,
					"amplitude":0.5099999904632568,
					"frequency":1.350000023841858,
					"dimension":1.0,
					"lacunarity":2.0,
					"offset":0.8999999761581421,
					"gain":3.0,
					"marble_bias":2,
					"marble_sharp":0,
					"marble_shape":4,
					"height":0.30000001192092896,
					"height_invert":0,
					"height_offset":0.0,
					"maximum":1.0,
					"minimum":-1.0,
					"edge_falloff":0,
					"edge_level":0.0,
					"falloff_x":4.0,
					"falloff_y":4.0,
					"strata_type":0,
					"strata":3.0,
					"water_plane":0,
					"water_level":-0.019999999552965164,
					"vert_group":"",
					"remove_double":0,
					"fx_mixfactor":0.0,
					"fx_mix_mode":0,
					"fx_type":0,
					"fx_bias":0,
					"fx_turb":0.0,
					"fx_depth":0,
					"fx_frequency":2.0,
					"fx_amplitude":0.5,
					"fx_size":1.0,
					"fx_loc_x":0.0,
					"fx_loc_y":0.0,
					"fx_height":0.5,
					"fx_offset":0.0,
					"fx_invert":0
				}
			},
			"mesh":0,
			"name":"Landscape",
			"scale":[
				0.5,
				0.5,
				0.5
			]
		}
	],
	"meshes":[
		{
			"name":"Landscape",
			"primitives":[
				{
					"attributes":{
						"POSITION":0,
						"NORMAL":1
					},
					"indices":2
				}
			]
		}
	],
	"accessors":[
		{
			"bufferView":0,
			"componentType":5126,
			"count":16384,
			"max":[
				200.62387084960938,
				38.05009078979492,
				200.1382293701172
			],
			"min":[
				-201.8649444580078,
				-30.715890884399414,
				-202.41400146484375
			],
			"type":"VEC3"
		},
		{
			"bufferView":1,
			"componentType":5126,
			"count":16384,
			"type":"VEC3"
		},
		{
			"bufferView":2,
			"componentType":5123,
			"count":96774,
			"type":"SCALAR"
		}
	],
	"bufferViews":[
		{
			"buffer":0,
			"byteLength":196608,
			"byteOffset":0,
			"target":34962
		},
		{
			"buffer":0,
			"byteLength":196608,
			"byteOffset":196608,
			"target":34962
		},
		{
			"buffer":0,
			"byteLength":193548,
			"byteOffset":393216,
			"target":34963
		}
	],
	"buffers":[
		{
			"byteLength":586764,
			"uri":"map-a63f9006c01457291b5da5c712f7e6b7.bin"
		}
	]
}
