{
	"asset":{
		"generator":"Khronos glTF Blender I/O v4.3.47",
		"version":"2.0"
	},
	"scene":0,
	"scenes":[
		{
			"name":"Scene",
			"nodes":[
				0
			]
		}
	],
	"nodes":[
		{
			"mesh":0,
			"name":"Cylinder"
		}
	],
	"meshes":[
		{
			"name":"Cylinder.001",
			"primitives":[
				{
					"attributes":{
						"POSITION":0,
						"NORMAL":1,
						"TEXCOORD_0":2
					},
					"indices":3
				}
			]
		}
	],
	"accessors":[
		{
			"bufferView":0,
			"componentType":5126,
			"count":1003,
			"max":[
				10,
				13.834915161132812,
				10
			],
			"min":[
				-10,
				-15,
				-10
			],
			"type":"VEC3"
		},
		{
			"bufferView":1,
			"componentType":5126,
			"count":1003,
			"type":"VEC3"
		},
		{
			"bufferView":2,
			"componentType":5126,
			"count":1003,
			"type":"VEC2"
		},
		{
			"bufferView":3,
			"componentType":5123,
			"count":4212,
			"type":"SCALAR"
		}
	],
	"bufferViews":[
		{
			"buffer":0,
			"byteLength":12036,
			"byteOffset":0,
			"target":34962
		},
		{
			"buffer":0,
			"byteLength":12036,
			"byteOffset":12036,
			"target":34962
		},
		{
			"buffer":0,
			"byteLength":8024,
			"byteOffset":24072,
			"target":34962
		},
		{
			"buffer":0,
			"byteLength":8424,
			"byteOffset":32096,
			"target":34963
		}
	],
	"buffers":[
		{
			"byteLength":40520,
			"uri":"power_plant-55ad3afde31838e86366fd823ee0b3fc.bin"
		}
	]
}
